HIERARCHY
ROOT Hips
{
	OFFSET 228.634003 92.561920 -263.051910
	CHANNELS 6 Xposition Yposition Zposition Xrotation Yrotation Zrotation 
	JOINT RightUpLeg
	{
		OFFSET 0.103458 1.857820 10.548502
		CHANNELS 3 Xrotation Yrotation Zrotation
		JOINT RightLeg
		{
			OFFSET 43.500000 -0.000023 -0.000011
			CHANNELS 3 Xrotation Yrotation Zrotation
			JOINT RightFoot
			{
				OFFSET 42.372192 0.000038 0.000002
				CHANNELS 3 Xrotation Yrotation Zrotation
				JOINT RightToe
				{
					OFFSET 17.299992 -0.000004 0.000006
					CHANNELS 3 Xrotation Yrotation Zrotation
					End Site
					{
						OFFSET 0.000000 0.000000 0.000000
					}
				}
			}
		}
	}
	JOINT LeftUpLeg
	{
		OFFSET 0.103461 1.857814 -10.548508
		CHANNELS 3 Xrotation Yrotation Zrotation
		JOINT LeftLeg
		{
			OFFSET 43.500042 -0.000015 0.000008
			CHANNELS 3 Xrotation Yrotation Zrotation
			JOINT LeftFoot
			{
				OFFSET 42.372253 0.000008 0.000006
				CHANNELS 3 Xrotation Yrotation Zrotation
				JOINT LeftToe
				{
					OFFSET 17.299973 -0.000014 0.000011
					CHANNELS 3 Xrotation Yrotation Zrotation
					End Site
					{
						OFFSET 0.000000 0.000000 0.000000
					}
				}
			}
		}
	}
	JOINT Spine
	{
		OFFSET 6.901966 -2.603737 -0.000007
		CHANNELS 3 Xrotation Yrotation Zrotation
		JOINT Spine1
		{
			OFFSET 12.588102 0.000017 0.000001
			CHANNELS 3 Xrotation Yrotation Zrotation
			JOINT Spine2
			{
				OFFSET 12.343197 -0.000013 0.000000
				CHANNELS 3 Xrotation Yrotation Zrotation
				JOINT Neck
				{
					OFFSET 25.832905 -0.000008 0.000000
					CHANNELS 3 Xrotation Yrotation Zrotation
					JOINT Head
					{
						OFFSET 11.766610 0.000009 -0.000002
						CHANNELS 3 Xrotation Yrotation Zrotation
						End Site
						{
							OFFSET 0.000000 0.000000 0.000000
						}
					}
				}
				JOINT RightShoulder
				{
					OFFSET 19.745903 -1.480377 6.000115
					CHANNELS 3 Xrotation Yrotation Zrotation
					JOINT RightArm
					{
						OFFSET 11.284125 -0.000014 -0.000024
						CHANNELS 3 Xrotation Yrotation Zrotation
						JOINT RightForeArm
						{
							OFFSET 33.000046 -0.000012 0.000029
							CHANNELS 3 Xrotation Yrotation Zrotation
							JOINT RightHand
							{
								OFFSET 25.199989 0.000034 0.000012
								CHANNELS 3 Xrotation Yrotation Zrotation
								End Site
								{
									OFFSET 0.000000 0.000000 0.000000
								}
							}
						}
					}
				}
				JOINT LeftShoulder
				{
					OFFSET 19.746098 -1.480362 -6.000071
					CHANNELS 3 Xrotation Yrotation Zrotation
					JOINT LeftArm
					{
						OFFSET 11.284137 -0.000006 -0.000008
						CHANNELS 3 Xrotation Yrotation Zrotation
						JOINT LeftForeArm
						{
							OFFSET 33.000095 0.000017 0.000000
							CHANNELS 3 Xrotation Yrotation Zrotation
							JOINT LeftHand
							{
								OFFSET 25.199778 0.000144 0.000423
								CHANNELS 3 Xrotation Yrotation Zrotation
								End Site
								{
									OFFSET 0.000000 0.000000 0.000000
								}
							}
						}
					}
				}
			}
		}
	}
}
MOTION
Frames: 14
Frame Time: 0.033333
-302.108185 90.084648 539.575928 87.515856 3.336260 124.176500 154.669005 -9.022790 163.836294 -41.810163 -4.757370 -16.982034 78.545830 11.812980 -0.888618 21.454560 0.003107 0.000018 -177.452467 4.362595 -173.595801 -13.280473 2.406992 5.987536 75.630767 -1.215818 11.089798 21.454548 -0.003099 -0.000001 8.119606 0.509342 -0.016507 6.226599 1.018878 -0.005703 5.908432 1.018694 -0.011870 -0.057850 7.493469 14.762515 -11.111672 -18.027031 21.853819 -152.963507 -67.285013 -29.305101 -0.966122 51.261113 15.359198 -89.541280 -5.942023 2.741884 13.566892 7.124880 66.706291 -151.555136 76.169313 30.552587 -6.863102 -49.788599 -24.224273 -94.408712 4.033942 -2.783065 5.147846 1.143783 -77.818080 
-301.527100 89.763847 540.668274 87.661578 3.281685 130.208104 154.429566 -7.735591 162.157379 -37.577262 -4.073320 -18.386909 80.158670 12.795800 -0.592262 21.454560 0.003108 0.000017 -175.464855 3.723689 -171.526472 -13.127879 2.394586 8.164855 76.890779 -2.559518 12.334878 21.454555 -0.003087 -0.000001 8.204999 0.651981 -0.142032 6.396142 1.310826 -0.247962 6.077962 1.309171 -0.255879 -0.905081 7.036319 14.341512 -11.146006 -18.002936 21.383032 -153.423001 -67.622103 -28.820816 -2.751422 50.569266 13.974155 -88.110765 -7.127118 2.761098 14.255746 7.021122 67.776998 -150.952221 75.706288 31.181282 -6.078139 -49.752379 -22.844864 -92.895798 3.941474 -2.709312 -0.286788 1.463204 -65.571906 
-300.726288 89.344994 541.804871 87.770615 3.192373 136.142705 154.574708 -6.132296 160.110330 -34.005135 -3.656597 -19.071288 80.848703 13.294891 -0.338283 21.454558 0.003109 0.000017 -174.076674 3.199104 -168.445319 -14.249712 2.408880 9.470383 78.336389 -3.308285 13.642952 21.454553 -0.003098 -0.000001 8.190108 0.789535 -0.262826 6.364614 1.592321 -0.482043 6.046401 1.589241 -0.491658 -0.966907 6.668448 13.887411 -11.286010 -17.686623 20.791301 -153.596980 -68.241083 -28.625096 -4.014629 50.842477 12.995319 -86.424474 -8.438740 2.778019 14.507960 6.666616 68.216986 -152.146698 75.164572 29.975897 -4.411560 -49.889437 -21.914925 -91.024524 4.270198 -2.649188 -1.680593 1.491476 -56.569976 
-299.556213 88.896118 542.856079 88.007131 2.934309 141.055414 155.768980 -4.315592 157.826370 -30.348743 -3.540779 -19.592410 81.179319 13.387560 -1.603104 21.454560 0.003110 0.000017 -173.424391 3.088104 -166.763658 -16.637468 2.323150 10.686342 79.861639 -3.958155 15.262688 21.454541 -0.003109 -0.000002 8.114221 0.833676 -0.247968 6.212952 1.679450 -0.451043 5.894720 1.676551 -0.461183 -1.211928 6.699747 13.383950 -10.837355 -17.532635 20.167320 -152.302782 -68.667498 -29.950499 -4.851403 51.771471 12.427463 -84.956188 -9.549316 2.790800 14.311476 6.171734 68.190765 -152.143420 74.227805 30.004574 -3.104902 -50.130453 -21.376486 -89.195953 5.105513 -2.626553 1.435616 0.164590 -53.947945 
-298.102203 88.642273 543.762573 88.479466 2.441902 145.009096 157.818269 -2.267903 157.047277 -26.876096 -3.827737 -19.793844 80.779507 14.127220 1.226440 21.454557 0.003109 0.000018 -173.162890 3.746394 -165.851787 -19.742132 2.408659 11.546350 79.937611 -4.062337 17.495893 21.454551 -0.003103 0.000001 8.012847 0.781715 -0.214532 6.010755 1.573505 -0.388389 5.692530 1.570991 -0.397892 -1.344130 6.821645 13.111067 -10.556687 -17.449776 19.842598 -151.317309 -68.581929 -30.970325 -3.729282 52.717312 12.404318 -84.425598 -9.838855 2.787611 13.904732 5.401787 66.784012 -152.509873 73.584094 29.646402 -2.129324 -50.773512 -20.520673 -87.551858 6.092821 -2.622919 8.042480 -2.540569 -58.672951 
-296.426300 88.446663 544.568787 89.085365 1.868537 148.528201 159.418760 0.033996 159.273673 -25.546634 -4.412513 -19.541391 81.528751 14.726038 5.195342 21.454558 0.003112 0.000018 -174.229465 4.887402 -164.569214 -25.517049 1.658371 11.694833 77.667181 -3.011997 20.672348 21.454550 -0.003093 -0.000000 7.928111 0.678885 -0.258801 5.840914 1.369931 -0.483199 5.522718 1.366852 -0.491466 -1.421189 7.442434 12.865692 -10.646598 -17.925300 19.876049 -150.531086 -68.373991 -31.788103 -1.005520 53.705555 13.233871 -84.366831 -9.800732 2.782330 12.863461 4.804008 64.198799 -152.061622 73.061611 30.120110 -1.873172 -51.664999 -19.710247 -85.844119 7.430185 -2.641210 15.488369 -4.925958 -69.440525 
-294.621796 87.796791 545.216125 90.523530 0.689248 152.171000 160.005869 3.327107 165.688723 -26.927343 -5.507945 -21.617530 82.597566 16.095551 5.552620 21.454555 0.003107 0.000018 -176.883922 8.117907 -164.569501 -35.779246 1.637615 11.598924 74.308920 -1.262108 24.320041 21.454560 -0.003082 0.000002 7.994067 0.358917 -0.431185 5.972675 0.739548 -0.843370 5.654593 0.734306 -0.847820 -1.631801 7.947740 12.539581 -10.772714 -18.016427 19.704590 -150.100510 -68.155090 -32.239579 1.690961 54.064724 14.841356 -83.930819 -9.863638 2.767437 11.880784 4.351151 60.768535 -151.864584 72.387786 30.340800 -1.378153 -52.372603 -19.369986 -84.241736 8.704523 -2.660023 22.511848 -4.681973 -83.205515 
-292.747009 87.155197 545.932312 91.679724 -0.201730 155.374796 160.725129 5.507594 167.673153 -29.152296 -5.571666 -21.329677 84.384289 15.698560 5.452724 21.454560 0.003106 0.000017 179.031416 11.089900 -165.131161 -47.912551 0.897802 11.063495 68.491757 0.110687 23.403672 21.454558 -0.003095 0.000001 8.107648 0.056928 -0.495425 6.201847 0.140267 -0.987096 5.883802 0.134164 -0.987934 -2.121659 8.449267 11.984842 -10.784499 -17.637449 19.153818 -149.323385 -68.363896 -33.035303 3.432498 54.164291 17.120579 -83.182948 -10.132551 2.753264 11.476173 4.181947 57.986216 -151.788400 71.913102 30.432280 0.918987 -53.675779 -19.483851 -83.121285 9.660307 -2.677904 26.363844 -3.687970 -93.989427 
-290.635803 87.045723 546.798584 92.572402 -0.283875 158.373509 163.033433 6.054789 167.067110 -29.804961 -5.636718 -19.217091 86.090641 14.205761 5.938510 21.454562 0.003107 0.000017 174.385193 12.920506 -167.891009 -59.541539 0.969954 10.689827 61.870715 -0.587106 17.623773 21.454558 -0.003085 -0.000000 8.304495 -0.102740 -0.528645 6.596943 -0.175227 -1.062268 6.278911 -0.181781 -1.061193 -2.890783 8.897961 11.445981 -10.865224 -17.296392 18.654531 -148.632812 -68.594798 -33.740387 4.455887 53.833260 19.134454 -82.941398 -10.140221 2.743137 11.018096 4.379753 57.500391 -151.581091 71.485921 30.657328 4.268528 -55.086790 -19.680451 -82.868773 9.947108 -2.686968 27.289099 -2.326357 -96.933198 
-288.377594 87.214470 547.688904 93.370660 -0.194231 161.716914 166.063468 6.388107 166.726748 -29.300484 -5.536708 -16.930659 87.167694 12.652970 6.441901 21.454558 0.003112 0.000018 170.073199 14.060810 -171.226286 -68.109813 1.854716 7.149695 59.756888 -0.508842 10.956800 21.454551 -0.003090 0.000000 8.513418 -0.185319 -0.697062 7.016000 -0.328094 -1.404041 6.698027 -0.336706 -1.402035 -3.260811 8.770009 11.204900 -11.331213 -16.888607 18.367226 -149.799313 -68.324821 -32.545302 5.219676 52.280252 21.232596 -82.830414 -10.203586 2.742695 10.004328 4.235550 58.006427 -150.281114 70.930709 32.010406 7.513860 -56.458286 -19.835165 -82.362294 10.082248 -2.674293 24.733249 -2.152757 -94.083199 
-286.027893 87.547462 548.537170 93.832312 -0.150336 165.685308 169.134062 7.084201 169.119432 -27.759525 -5.495644 -15.855311 87.504818 11.895276 6.498613 21.454555 0.003110 0.000018 165.842908 14.454499 -172.571764 -73.377890 1.101325 2.580395 63.777807 1.266571 7.836588 21.454562 -0.003086 0.000001 8.618384 -0.209515 -1.001796 7.227083 -0.356157 -2.014678 6.909203 -0.368451 -2.012497 -2.973254 8.715232 11.012268 -12.041799 -16.880162 18.271811 -150.912606 -68.258991 -31.397587 5.779695 51.132323 23.565843 -82.326442 -10.507413 2.742623 8.691988 3.516577 57.647336 -149.063510 69.824286 33.298388 10.599571 -56.955206 -20.413253 -81.444173 10.278547 -2.647996 21.297290 -3.130236 -87.138051 
-283.654907 87.983543 549.409119 93.669890 0.186924 169.899508 171.818108 7.087800 171.887421 -25.944593 -5.375724 -14.756820 87.601472 11.130928 6.455693 21.454560 0.003108 0.000018 161.631905 13.770403 -175.176334 -74.897915 1.980846 0.327910 65.531915 1.785261 5.307451 21.454543 -0.003096 0.000002 8.558144 -0.098287 -1.293540 7.104775 -0.117124 -2.590634 6.787033 -0.132901 -2.589885 -2.510808 8.850194 10.758240 -11.883298 -17.323983 18.128459 -151.792772 -68.561309 -30.480003 6.556809 51.020683 25.737150 -81.935974 -10.736624 2.740716 8.174180 3.537692 57.281378 -147.431204 68.916486 35.011393 13.928853 -56.936057 -21.862361 -80.107778 10.510299 -2.606169 17.660146 -4.582403 -78.579592 
-281.211792 88.325333 550.253113 93.485318 0.621092 173.802988 174.380631 6.594893 174.662567 -24.268483 -5.473116 -13.808882 87.790341 10.459109 6.358093 21.454557 0.003109 0.000018 158.139766 12.380708 -177.312804 -73.141306 2.220670 1.105803 64.977509 1.461314 5.919580 21.454563 -0.003089 0.000000 8.516343 0.026998 -1.524366 7.017921 0.146188 -3.044264 6.700300 0.127674 -3.045094 -2.581610 9.099037 10.578681 -11.458292 -17.326633 17.923572 -151.739414 -68.921014 -30.524915 7.520960 51.625999 27.508645 -82.294101 -10.401031 2.732921 7.483526 2.958275 56.697721 -146.369287 68.424596 36.124218 17.088865 -56.581649 -23.695687 -78.905214 10.743246 -2.570502 15.305855 -5.951876 -70.443696 
-278.669586 88.495377 550.973877 93.305370 0.870717 177.349113 176.688934 6.081299 177.419915 -22.942672 -5.651385 -13.080221 88.199947 9.907993 6.176552 21.454558 0.003111 0.000018 155.338733 11.179795 -179.260815 -68.732515 2.137156 3.123855 64.426627 0.358042 6.845946 21.454567 -0.003087 0.000000 8.486887 0.088545 -1.677288 6.956918 0.277528 -3.346211 6.639399 0.257191 -3.347826 -3.083263 9.439732 10.402200 -11.101036 -17.024332 17.686440 -151.402003 -69.322220 -30.861517 8.691054 52.598614 28.987613 -83.115138 -9.658193 2.716979 5.812984 1.634810 54.502365 -145.884713 68.279195 36.629488 19.781572 -55.749066 -25.688862 -78.103063 11.042751 -2.556929 15.356333 -7.395795 -64.309277 
